<svg width="21" height="21" viewBox="0 0 21 21" fill="none" xmlns="http://www.w3.org/2000/svg">
<path d="M8.4 5.25C8.39979 6.71017 8.8345 8.13732 9.64869 9.34942C10.4629 10.5615 11.6196 11.5037 12.9715 12.0556C14.3233 12.6076 15.8089 12.7445 17.2388 12.4487C18.6687 12.1529 19.9781 11.438 21 10.395V10.5C21 16.2991 16.2991 21 10.5 21C4.70085 21 0 16.2991 0 10.5C0 4.70085 4.70085 0 10.5 0H10.605C9.90574 0.683681 9.3504 1.50041 8.9717 2.40207C8.59301 3.30372 8.39862 4.27205 8.4 5.25V5.25ZM2.1 10.5C2.09924 12.3742 2.7253 14.1949 3.87859 15.6723C5.03187 17.1496 6.64611 18.1989 8.46448 18.6531C10.2828 19.1072 12.2009 18.9402 13.9134 18.1786C15.6259 17.417 17.0345 16.1046 17.9151 14.4501C16.3479 14.8193 14.7124 14.782 13.1637 14.3417C11.615 13.9013 10.2044 13.0726 9.06592 11.9341C7.92741 10.7956 7.09868 9.38505 6.65834 7.83634C6.21801 6.28762 6.18068 4.65209 6.5499 3.0849C5.20546 3.80114 4.08112 4.86955 3.29727 6.17573C2.51341 7.4819 2.09956 8.97667 2.1 10.5V10.5Z" fill="white"/>
</svg>
