<svg width="22" height="18" viewBox="0 0 22 18" fill="none" xmlns="http://www.w3.org/2000/svg">
<path d="M10.6103 5.77307C10.298 5.77307 10.0357 5.68717 9.8233 5.51538C9.61094 5.34359 9.50476 5.13138 9.50476 4.87875C9.50476 4.62612 9.61094 4.41391 9.8233 4.24212C10.0357 4.07033 10.298 3.98444 10.6103 3.98444C10.9351 3.98444 11.2036 4.07033 11.416 4.24212C11.6408 4.41391 11.7533 4.62612 11.7533 4.87875C11.7533 5.13138 11.6408 5.34359 11.416 5.51538C11.2036 5.68717 10.9351 5.77307 10.6103 5.77307ZM9.65466 7.19791H11.5846V14.4737H9.65466V7.19791Z" fill="#2E3B52"/>
<path d="M10.8892 17C16.3509 17 20.7784 13.4183 20.7784 9C20.7784 4.58172 16.3509 1 10.8892 1C5.42755 1 1 4.58172 1 9C1 13.4183 5.42755 17 10.8892 17Z" stroke="#2E3B52"/>
</svg>
