<svg width="21" height="21" viewBox="0 0 21 21" fill="none" xmlns="http://www.w3.org/2000/svg">
<path d="M10.5 16.2273C8.98103 16.2273 7.52428 15.6239 6.45021 14.5498C5.37613 13.4757 4.77273 12.019 4.77273 10.5C4.77273 8.98103 5.37613 7.52428 6.45021 6.45021C7.52428 5.37613 8.98103 4.77273 10.5 4.77273C12.019 4.77273 13.4757 5.37613 14.5498 6.45021C15.6239 7.52428 16.2273 8.98103 16.2273 10.5C16.2273 12.019 15.6239 13.4757 14.5498 14.5498C13.4757 15.6239 12.019 16.2273 10.5 16.2273ZM10.5 14.3182C11.5126 14.3182 12.4838 13.9159 13.1999 13.1999C13.9159 12.4838 14.3182 11.5126 14.3182 10.5C14.3182 9.48736 13.9159 8.51619 13.1999 7.80014C12.4838 7.08409 11.5126 6.68182 10.5 6.68182C9.48736 6.68182 8.51619 7.08409 7.80014 7.80014C7.08409 8.51619 6.68182 9.48736 6.68182 10.5C6.68182 11.5126 7.08409 12.4838 7.80014 13.1999C8.51619 13.9159 9.48736 14.3182 10.5 14.3182V14.3182ZM9.54545 0H11.4545V2.86364H9.54545V0ZM9.54545 18.1364H11.4545V21H9.54545V18.1364ZM2.40068 3.75041L3.75041 2.40068L5.775 4.42527L4.42527 5.775L2.40068 3.75136V3.75041ZM15.225 16.5747L16.5747 15.225L18.5993 17.2496L17.2496 18.5993L15.225 16.5747ZM17.2496 2.39973L18.5993 3.75041L16.5747 5.775L15.225 4.42527L17.2496 2.40068V2.39973ZM4.42527 15.225L5.775 16.5747L3.75041 18.5993L2.40068 17.2496L4.42527 15.225V15.225ZM21 9.54545V11.4545H18.1364V9.54545H21ZM2.86364 9.54545V11.4545H0V9.54545H2.86364Z" fill="black"/>
</svg>
